<?xml version="1.0" standalone="no"?>
<!DOCTYPE svg PUBLIC "-//W3C//DTD SVG 1.1//EN" "http://www.w3.org/Graphics/SVG/1.1/DTD/svg11.dtd" >
<svg xmlns="http://www.w3.org/2000/svg">
<metadata>
Created by FontForge 20120731 at Wed Apr 20 20:02:12 2016
 By admin
</metadata>
<defs>
<font id="iconfont" horiz-adv-x="1024" >
  <font-face 
    font-family="iconfont"
    font-weight="500"
    font-stretch="normal"
    units-per-em="1024"
    panose-1="2 0 6 3 0 0 0 0 0 0"
    ascent="896"
    descent="-128"
    x-height="792"
    bbox="-0.363636 -212 1169 896.182"
    underline-thickness="50"
    underline-position="-100"
    unicode-range="U+0078-E61A"
  />
<missing-glyph horiz-adv-x="374" 
d="M34 0v682h272v-682h-272zM68 34h204v614h-204v-614z" />
    <glyph glyph-name=".notdef" horiz-adv-x="374" 
d="M34 0v682h272v-682h-272zM68 34h204v614h-204v-614z" />
    <glyph glyph-name=".null" horiz-adv-x="0" 
 />
    <glyph glyph-name="nonmarkingreturn" horiz-adv-x="341" 
 />
    <glyph glyph-name="x" unicode="x" horiz-adv-x="1001" 
d="M281 543q-27 -1 -53 -1h-83q-18 0 -36.5 -6t-32.5 -18.5t-23 -32t-9 -45.5v-76h912v41q0 16 -0.5 30t-0.5 18q0 13 -5 29t-17 29.5t-31.5 22.5t-49.5 9h-133v-97h-438v97zM955 310v-52q0 -23 0.5 -52t0.5 -58t-10.5 -47.5t-26 -30t-33 -16t-31.5 -4.5q-14 -1 -29.5 -0.5
t-29.5 0.5h-32l-45 128h-439l-44 -128h-29h-34q-20 0 -45 1q-25 0 -41 9.5t-25.5 23t-13.5 29.5t-4 30v167h911zM163 247q-12 0 -21 -8.5t-9 -21.5t9 -21.5t21 -8.5q13 0 22 8.5t9 21.5t-9 21.5t-22 8.5zM316 123q-8 -26 -14 -48q-5 -19 -10.5 -37t-7.5 -25t-3 -15t1 -14.5
t9.5 -10.5t21.5 -4h37h67h81h80h64h36q23 0 34 12t2 38q-5 13 -9.5 30.5t-9.5 34.5q-5 19 -11 39h-368zM336 498v228q0 11 2.5 23t10 21.5t20.5 15.5t34 6h188q31 0 51.5 -14.5t20.5 -52.5v-227h-327z" />
    <glyph glyph-name="uniE600" unicode="&#xe600;" horiz-adv-x="1170" 
d="M1122 -69h-362l387 383q20 19 20 44t-20 44l-398 391q-19 19 -45 19t-43 -19l-624 -614q-20 -19 -20 -45t20 -43l160 -160h-149q-20 0 -34 -14.5t-14 -33.5v-51q0 -17 14.5 -30.5t33.5 -13.5h1074q19 0 33 14t14 34v51q0 16 -14 30t-33 14zM610 -139h-263l-69 70
l-201 200q-6 6 0 11l621 614q5 6 11 0l398 -394q6 -6 0 -11l-424 -420zM705 687q-14 0 -23.5 -7.5t-9.5 -18.5l-58 -445l-446 -52q-13 0 -20.5 -10.5t-4.5 -22.5q0 -10 8.5 -17.5t20.5 -7.5h3l472 51q11 0 18 7.5t7 18.5l62 471q0 14 -7.5 23.5t-21.5 9.5z" />
    <glyph glyph-name="uniE601" unicode="&#xe601;" horiz-adv-x="1025" 
d="M220 325q11 1 23.5 2.5t19.5 2.5t8 1q125 29 223 18q4 -1 13.5 -1.5t17 -1t7.5 -1.5v2q0 22 -5 54t-9.5 53.5t-15.5 66.5t-14 56q-6 31 -18 62t-19 44.5t-12 20.5q-12 15 -32 27.5t-34 16.5l-14 4q-37 8 -76.5 -1.5t-60.5 -22.5l-21 -14q-26 -16 -42 -38.5t-20 -43.5
t-3.5 -40t3 -30.5t3.5 -11.5h-15q-119 0 -127 -92q-2 -31 7 -58q12 -32 38 -53.5t48 -27.5q12 -2 24.5 -3t29 0t25 2t27.5 3.5t21 3.5zM532 347v-2q6 1 23.5 6.5t22.5 6.5t19.5 5t21 5.5t21 5t25 5t26 4t32.5 4.5t37 4q80 10 122 36q15 10 28.5 25t18.5 25l6 9
q18 40 14 75.5t-12.5 56.5t-12.5 24q-19 28 -41.5 42.5t-43 14.5t-31 -2t-20.5 -6q-1 -1 -2 -1q-1 -2 -24 -12q0 37 -2 43q-8 30 -27 48t-41.5 22t-39.5 3t-29 -4q-58 -18 -82 -62q-3 -6 -5 -11t-3.5 -11t-2.5 -9.5t-2 -9.5t-1.5 -8.5t-1 -9.5t-1 -9t-1 -10.5t-0.5 -10.5
v-43v-46q0 -14 0.5 -42t1.5 -46t2.5 -42.5t4.5 -46.5v-26zM516 329q-3 -1 -21 -1t-23 -1q-142 -6 -255 -64q-42 -19 -81 -62q-1 -2 -7.5 -11t-9.5 -14t-9 -15.5t-8.5 -19t-4.5 -20.5t-1 -24q-2 -9 -2.5 -23.5t4.5 -37.5t17 -42t39 -34.5t66 -18.5q42 0 42 3q0 -5 4 -18
q0 -4 3.5 -15.5t11 -28.5t25 -35t40.5 -29q16 -13 50.5 -14.5t77 16t67.5 55.5q7 2 18 29t13 55q2 2 -0.5 47t-10.5 95q-6 23 -17 64t-16 60t-8.5 48t-3.5 56zM959 323q-20 13 -64 24q-71 14 -133 9q-54 -4 -123.5 -13.5t-102.5 -11.5q3 -4 4.5 -16.5t2.5 -14.5
q33 -128 82 -252q29 -65 40 -80q15 -12 23.5 -17.5t29.5 -12t44 -5.5q12 0 31.5 4.5t43 15.5t39 34t12.5 54q0 2 -4 15.5t-7 25t-4 11.5h2q1 0 13.5 -2t15.5 -2h2q11 0 21 1t30 7t36.5 24t25.5 47q12 22 -1.5 75t-58.5 80z" />
    <glyph glyph-name="uniE602" unicode="&#xe602;" 
d="M960 611h-480v58q0 27 -18.5 45.5t-45.5 18.5h-352q-27 0 -45.5 -19t-18.5 -45v-762q0 -27 18.5 -45.5t45.5 -18.5h896q27 0 45.5 18.5t18.5 45.5v640q0 27 -18.5 45.5t-45.5 18.5zM96 685h288q27 0 37.5 -10.5t10.5 -37.5v-74h496q27 0 37.5 -10.5t10.5 -37.5v-89h-928
v211q0 27 10.5 37.5t37.5 10.5zM928 -109h-832q-27 0 -37.5 10.5t-10.5 37.5v439h928v-439q0 -27 -10.5 -37.5t-37.5 -10.5z" />
    <glyph glyph-name="uniE603" unicode="&#xe603;" 
d="M1024 418v280q0 47 -33.5 80.5t-80.5 33.5h-597q-47 0 -80.5 -33.5t-33.5 -80.5v-170h-85q-47 0 -80.5 -33.5t-33.5 -80.5v-512q0 -47 33.5 -80.5t80.5 -33.5h199h597q47 0 80.5 33.5t33.5 80.5v512v2v2zM967 512v-96v-514q0 -24 -16.5 -40.5t-40.5 -16.5h-597h-99h-100
q-24 0 -40.5 16.5t-16.5 40.5v512q0 23 16.5 40t40.5 17h85v-541h57v541v57v170q0 24 16.5 40.5t40.5 16.5h597q24 0 40.5 -16.5t16.5 -40.5v-186zM797 557h-370q-18 0 -30.5 -12.5t-12.5 -30.5t12.5 -30.5t30.5 -12.5h370q18 0 30.5 12.5t12.5 30.5t-12.5 30.5t-30.5 12.5z
M797 371h-370q-18 0 -30.5 -12.5t-12.5 -30.5t12.5 -30.5t30.5 -12.5h370q18 0 30.5 12.5t12.5 30.5t-12.5 30.5t-30.5 12.5zM797 186h-370q-18 0 -30.5 -12.5t-12.5 -30.5t12.5 -30.5t30.5 -12.5h370q18 0 30.5 12.5t12.5 30.5t-12.5 30.5t-30.5 12.5z" />
    <glyph glyph-name="uniE604" unicode="&#xe604;" 
d="M1011 -16h-183q-19 130 -113 207q-12 23 -12 46q0 50 35.5 85.5t85.5 35.5t85.5 -35.5t35.5 -85.5q0 -32 -16 -59t-43 -42q50 -17 83 -58t42 -94zM317 237q0 -15 -8 -39q-50 -38 -83 -94t-42 -120h-167q6 52 39.5 92.5t81.5 55.5q-27 15 -43 42.5t-16 58.5
q0 50 35.5 85.5t85.5 35.5t83.5 -33.5t33.5 -83.5zM808 -16h-600q11 83 66.5 149.5t136.5 96.5q-45 26 -71.5 70.5t-26.5 96.5q0 82 56.5 138.5t138.5 56.5t138.5 -56.5t56.5 -138.5q0 -52 -26.5 -98t-70.5 -69q82 -30 136.5 -96t65.5 -150z" />
    <glyph glyph-name="uniE605" unicode="&#xe605;" 
d="M989 -110l-253 253q-1 0 -2 1q74 103 74 229q0 106 -52 196t-142 142t-196 52t-196 -52t-142 -142t-52 -196t52 -196t142 -142.5t196 -52.5q79 0 149.5 30t124.5 84l252 -252q7 -7 18 -7t18 7l9 9q8 8 8 18.5t-8 18.5zM417.5 46q-88.5 0 -163.5 44t-119 119t-44 163.5
t44 164t119 119t163.5 43.5t164 -43.5t119 -119t43.5 -164t-43.5 -163.5t-119 -119t-164 -44z" />
    <glyph glyph-name="uniE606" unicode="&#xe606;" 
d="M914 715h-256q-44 0 -82 -19.5t-64 -53.5q-26 34 -64 53.5t-82 19.5h-256q-31 0 -52 -21.5t-21 -51.5v-677q0 -30 21 -51.5t52 -21.5h269q56 -55 133 -55t133 55h269q31 0 52 21.5t21 51.5v677q0 30 -21 51.5t-52 21.5zM937 -20q0 -14 -10.5 -24.5t-24.5 -10.5h-266
q-18 0 -29 -13q-38 -45 -95 -45t-95 45q-11 13 -29 13h-266q-14 0 -24.5 10.5t-10.5 24.5v650q0 14 10.5 24.5t24.5 10.5h235q50 0 89.5 -35t39.5 -82v-330q0 -21 13 -29.5t26 0t13 29.5v330q0 47 39.5 82t89.5 35h235q14 0 24.5 -10.5t10.5 -24.5v-650z" />
    <glyph glyph-name="uniE607" unicode="&#xe607;" 
d="M1002 456q-9 0 -16 -6.5t-7 -15.5v-362q0 -51 -23.5 -89.5t-67.5 -38.5h-716q-48 0 -87.5 40.5t-39.5 87.5v444q0 51 47 89q7 0 11 4q33 25 69 25h696h20q35 0 43 -19q7 -17 -18 -42l-318 -258l-1 -1q-34 -34 -81 -34t-81 34l-226 226q-7 7 -16 7t-15.5 -7t-6.5 -16
t7 -16l226 -226q46 -46 112 -46q65 0 111 46l318 257q1 1 2 1q46 47 28 92q-9 22 -31.5 34t-52.5 12h-20h-696q-68 0 -120 -49t-52 -113v-444q0 -65 53.5 -119t118.5 -54h716q64 0 100 52t36 121v362q0 9 -6.5 15.5t-15.5 6.5z" />
    <glyph glyph-name="uniE608" unicode="&#xe608;" 
d="M879 266q2 18 2 34t-2 34l85 67q14 12 17.5 29.5t-5.5 32.5l-91 160q-9 15 -26 21t-34 0l-101 -41q-27 20 -57 34l-15 108q-3 18 -16.5 29.5t-31.5 11.5h-183q-18 0 -31.5 -11.5t-15.5 -29.5l-16 -108q-29 -14 -57 -34l-101 41q-16 6 -33 0t-26 -21l-91 -160
q-9 -15 -6 -32.5t17 -29.5l86 -67q-2 -18 -2 -34t2 -34l-86 -67q-14 -12 -17 -29.5t6 -32.5l91 -160q9 -15 26 -21t34 0l100 41q28 -20 58 -34l15 -108q3 -18 16.5 -29.5t30.5 -11.5h183q18 0 31.5 11.5t16.5 29.5l15 108q30 14 57 34l101 -41q8 -3 18 -3q27 0 42 24l91 160
q9 15 5.5 32.5t-17.5 29.5zM844 4l-114 46q-13 5 -25 -4q-34 -26 -71 -42q-14 -5 -16 -20l-17 -119l-177 -3l-17 122q-2 15 -15 20q-37 16 -72 42q-7 6 -15 6q-5 0 -10 -2l-110 -48l-92 157l97 76q11 9 9 23q-3 23 -3 42t3 42q2 14 -9 23l-96 73l88 158l113 -46q14 -5 25 4
q34 26 72 42q13 5 15 20l14 119l180 3l17 -122q2 -15 16 -20q37 -16 71 -42q12 -9 25 -4l110 47l92 -156l-96 -76q-11 -9 -10 -23q3 -24 3 -42q0 -19 -3 -42q-1 -14 10 -23l95 -73zM513 493q-79 0 -135.5 -56.5t-56.5 -136.5t56.5 -136.5t135.5 -56.5t135 56.5t56 136.5
t-56 136.5t-135 56.5zM513 158q-58 0 -99 41.5t-41 100.5t41 100.5t99 41.5t99 -41.5t41 -100.5t-41 -100.5t-99 -41.5z" />
    <glyph glyph-name="uniE609" unicode="&#xe609;" horiz-adv-x="1103" 
d="M567 814q-18 9 -35 -4q-33 -28 -103 -81q-101 -75 -127 -84h-134h-2h-60q-11 0 -19 -8.5t-8 -20.5v-447q0 -12 8 -20t19 -8h217q26 -10 115 -84q48 -40 93 -80q9 -9 22 -9q7 0 14 3q19 9 19 31v781q0 22 -19 31v0zM532 57q-26 22 -48 40q-76 63 -108.5 81.5t-49.5 18.5
h-1h-1h-167q-14 0 -19 5.5t-5 20.5v343q0 12 3.5 17t14.5 5h151q18 0 52 18.5t116 80.5q30 22 62 47v-677zM860 393q0 64 -31 118t-84 85q-9 5 -15 5q-12 0 -20 -8t-8 -20q0 -16 14 -24q40 -24 64.5 -65.5t24.5 -90.5q0 -50 -25 -92t-67 -66q-13 -8 -13 -24q0 -11 8 -19.5
t19 -8.5l14 4q54 31 86.5 86t32.5 120v0zM828 740q-9 5 -16 5q-12 0 -20 -8t-8 -20q0 -16 16 -25q77 -46 123 -125.5t46 -173.5t-46 -174t-123 -125q-16 -10 -16 -26q0 -12 8 -20t19 -8q7 0 16 5q90 54 143 146t53 202q0 109 -53 201t-142 146v0z" />
    <glyph glyph-name="uniE60A" unicode="&#xe60a;" horiz-adv-x="1115" 
d="M669 -118q-87 0 -163.5 7t-126.5 17.5t-86.5 23t-52.5 23t-16 18.5q0 126 64.5 234t171.5 166q5 3 8 5q102 -72 204 -72t203 71q9 -4 22 -12q99 -61 158 -166.5t59 -225.5q0 -8 -16 -18.5t-52 -23t-86 -23t-126.5 -17.5t-164.5 -7zM172 -128zM676 896q-118 0 -201.5 -84
t-83.5 -202.5t83.5 -202t201.5 -83.5t202 83.5t84 202t-84 202.5t-202 84zM487 523q-6 -7 -15.5 -7t-16 6.5t-6.5 16t7 16.5q6 6 15.5 6t15.5 -6q7 -7 7 -16t-7 -16zM663 801q-74 0 -125.5 -52t-51.5 -125q0 -9 -6.5 -15.5t-15.5 -6.5t-15.5 6.5t-6.5 15.5q0 92 64.5 157
t156.5 65q9 0 15.5 -6.5t6.5 -16t-6.5 -16t-15.5 -6.5z" />
    <glyph glyph-name="uniE60B" unicode="&#xe60b;" 
d="M110 654q-3 -15 1 -24t11 -8t14 6q38 28 64 -6q5 -10 13.5 -14t17.5 1q13 6 13 32q-11 46 32 64q23 9 20.5 21t-26.5 17q-28 9 -40.5 23.5t-17.5 40.5q0 19 -19 19q-6 0 -19 -13q-4 -26 -20 -35.5t-44 -9.5q-12 6 -25 -4t0 -27q35 -36 25 -83zM110 654zM742 596
q11 45 51 45q51 5 79.5 38.5t28.5 82.5q5 68 -46 107t-126 21q-47 -14 -69 -61.5t-8 -91.5q7 -14 3 -25t-22 -20q-325 -203 -606 -370q-23 -14 -25.5 -29.5t13.5 -34.5q38 -51 114 -140q172 -172 383 -236q43 -11 55 -4.5t22 48.5l38 173l57 248q12 37 21.5 78.5t19.5 92.5
t17 78zM774 858q33 4 58 -23.5t25 -66.5q0 -45 -21 -64.5t-62 -24.5q-32 -4 -61 24.5t-29 58.5q0 37 27 64t63 32zM570 22q-5 -8 -7 -11.5t-5.5 -9t-6.5 -7.5t-8 -4t-11 -1.5t-13 1.5h-39q-25 -11 -49 -11.5t-46 9t-38.5 20t-40 27.5t-36.5 25q-13 7 0 20q6 6 25 6
q35 0 105.5 9.5t105.5 9.5q61 0 72 -15t-8 -68zM640 322q-13 -38 -13 -64q0 -8 -6.5 -13.5t-12.5 -5.5q-51 -13 -70 -13q-55 -3 -112 -9t-130 -16t-103 -13q-38 0 -77 27t-44 56q-9 17 2.5 24.5t29.5 7.5q51 0 140 13q21 1 97 13t120 12q26 0 77 9.5t76 9.5q20 -5 25 -12
t1 -26zM640 481q-20 -1 -119 -15t-156 -10l-12 13q108 69 204 121q19 6 64 6q4 1 18.5 6t22.5 6.5t18 -1t17 -11.5q8 -15 1 -40.5t-25 -50t-33 -24.5zM640 481zM812 3q13 23 7 30t-26 2q-19 -6 -34 -2.5t-24 21.5q-14 17 -22.5 10.5t-8.5 -23.5q0 -22 -9 -34.5t-30 -22.5
q-13 -5 -14.5 -16t8.5 -16q26 -9 35.5 -22.5t15.5 -41.5q0 -11 8 -15t17.5 9t15 18.5t15 11.5t19 3t21.5 -14q35 9 12 32q-32 44 -6 70zM812 3zM1003 201q-18 9 -25 19t-7 25q0 23 -11.5 26t-26.5 -13q-32 -32 -51 -19q-15 0 -22 -0.5t-14.5 -4t-6 -12t10.5 -21.5
q16 -24 -6 -58q-19 -38 25 -38q35 12 51 -13q1 0 7.5 -8t11 -11t7.5 0q19 10 19 32q0 12 5 20.5t9 11.5t18 13q23 14 24.5 27.5t-18.5 23.5zM1003 201z" />
    <glyph glyph-name="uniE60C" unicode="&#xe60c;" horiz-adv-x="1136" 
d="M1064 462zM353 -55h-149q-46 0 -78.5 36t-32.5 86v634q0 50 32.5 86t78.5 36h670q46 0 78.5 -36t32.5 -86v-61q0 -15 11 -26t26.5 -11t26.5 11t11 26v61q0 81 -55 138t-131 57h-670q-77 0 -131.5 -57t-54.5 -138v-634q0 -81 54.5 -138t131.5 -57h149q15 0 26 10.5t11 26
t-11 26t-26 10.5zM204 603q-15 0 -26 -10.5t-11 -25.5t11 -26t26 -11h298q15 0 26 11t11 26t-11 25.5t-26 10.5h-298zM464 347.5q0 15.5 -10.5 26t-26.5 10.5h-223q-15 0 -26 -10.5t-11 -26t11 -26t26 -10.5h223q16 0 26.5 10.5t10.5 26zM911 279q43 31 68 77.5t25 100.5
q0 91 -65.5 155.5t-158 64.5t-158 -64.5t-65.5 -155.5q0 -54 25 -100.5t68 -77.5q-88 -43 -146 -128.5t-58 -168.5q0 -15 11 -26t26 -11t26 11t11 26q0 38 21 82.5t55 83t83.5 64.5t101 26t101 -26t83.5 -64.5t55 -83t21 -82.5q0 -15 11 -26t26 -11t26 11t11 26
q0 83 -58 168.5t-146 128.5zM780.5 311q-61.5 0 -105 43t-43.5 103.5t43.5 103t105 42.5t105 -42.5t43.5 -103t-43.5 -103.5t-105 -43z" />
    <glyph glyph-name="uniE60D" unicode="&#xe60d;" 
d="M65 699h767v-98h-767v98zM65 167h446v-98h-446v98zM63 429h898v-98h-898v98z" />
    <glyph glyph-name="uniE60E" unicode="&#xe60e;" 
d="M997 750q-18 3 -49 3q-131 0 -283 -53q58 33 128 53.5t97 24t42 3.5q8 1 14 7t5.5 14.5t-6.5 14.5t-14.5 5.5t-22 -1.5t-49.5 -7.5t-71.5 -16.5t-82.5 -30.5t-89 -46.5q32 29 72 53.5t72 38.5t66 25t46.5 14t19.5 4q8 2 13 9t3.5 15.5t-8.5 13t-16 3.5q-10 -2 -25.5 -6
t-53 -15.5t-75 -30.5t-79 -44.5t-78.5 -64t-61 -84.5q-24 46 -61 84.5t-78.5 64t-79 44.5t-75 30t-53 15t-25.5 6q-9 2 -16 -3t-8.5 -13.5t3.5 -15.5t13 -8q7 -2 19.5 -4.5t46.5 -13.5t66 -25t72.5 -39t71.5 -54q-41 27 -88.5 47t-83 30.5t-71 16.5t-49.5 7.5t-22.5 2
t-14.5 -5.5t-6.5 -14.5t5.5 -15t14 -6.5q16 -1 42.5 -4t96.5 -23.5t128 -53.5q-152 52 -283 52q-31 0 -49 -2q-12 -2 -19.5 -11.5t-6.5 -21.5l51 -685q1 -12 9.5 -20t20.5 -8q71 -3 140 -17.5t113.5 -30.5t85.5 -36.5t53 -28.5t19 -13q9 -6 19 -6q7 0 14 3q3 2 7 5
q15 11 40.5 25t78.5 38t130 41t160 20q12 0 20.5 8.5t9.5 20.5l51 684q1 12 -6.5 21.5t-19.5 11.5zM481 -41q-164 92 -369 105l-47 626h11q188 0 405 -108v-623zM912 64q-205 -13 -369 -105v623q217 109 405 109h11zM912 64z" />
    <glyph glyph-name="uniE60F" unicode="&#xe60f;" 
d="M281 368zM210 367.5q0 29.5 21 50.5t50.5 21t50.5 -21t21 -50.5t-21 -50.5t-50.5 -21t-50.5 21t-21 50.5zM512 368zM440 367.5q0 29.5 21 50.5t51 21t51 -21t21 -50.5t-21 -50.5t-51 -21t-51 21t-21 50.5zM742 368zM671 367.5q0 29.5 21 50.5t50.5 21t50.5 -21t21 -50.5
t-21 -50.5t-50.5 -21t-50.5 21t-21 50.5zM512 752q-134 0 -247 -51.5t-179 -140t-66 -192.5q0 -86 46 -162t126 -130l38 -203q0 -3 2 -6v-1l1 -1v-1h1v-1v-1h1v-1v0h1v-1q5 -6 12 -9l1 -1q7 -2 14 -2h1v1h1h1h1q6 1 11 5l189 131q22 -1 45 -1q133 0 246.5 51t179 139.5
t65.5 193t-65.5 193t-178.5 140t-247 51.5zM822 145q-60 -47 -138 -73q-82 -27 -172 -27q-25 0 -50 2q-11 2 -21 -5l-159 -111l-32 169q-2 14 -14 21q-17 11 -34 24q-58 45 -89 103q-31 57 -31 119.5t31 120.5t89 103q60 47 138 72q82 27 172 27t172 -27q78 -25 138 -72
q58 -45 89 -103t31 -120.5t-31 -120t-89 -102.5z" />
    <glyph glyph-name="uniE610" unicode="&#xe610;" 
d="M358 176q0 -13 9 -22.5t22.5 -9.5t22.5 9.5t9 22.5v0q0 13 -9 22t-22.5 9t-22.5 -9t-9 -22zM621 176q0 -13 9 -22.5t22.5 -9.5t22.5 9.5t9 22.5v0q0 13 -9 22t-22.5 9t-22.5 -9t-9 -22zM848 271q0 7 -1 13q0 3 1 7q0 9 -3 20q-6 43 -21.5 82t-42.5 75.5t-71 63t-100 37.5
q3 9 3 19q0 32 -24.5 54t-59 22t-59 -22t-24.5 -54q0 -10 3 -20q-62 -12 -109.5 -44t-74.5 -74.5t-40 -88t-14 -91.5q-39 -29 -39 -77q0 -30 17 -54.5t44 -35.5q27 -173 43 -161q6 5 6 27q0 4 -2.5 33.5t-3.5 53.5q20 -37 49 -66q85 -85 204.5 -85t203.5 85q19 18 34 41
q-2 -65 -2 -80q0 -18 11 -1q19 29 41 119q4 17 7 33q29 10 46.5 35t17.5 56q0 49 -40 78zM186 193q0 36 26 60q0 -3 1 -5q9 -73 18 -129q-21 10 -33 30t-12 44zM768 57q-36 -63 -99.5 -101t-139.5 -38q-84 0 -153 47t-100 123q2 114 56 160q56 49 79 156q22 -95 85 -110
q91 -21 169 -22q1 -1 3 -1q98 0 106 -78v-1q-3 -73 -6 -135zM827 118q14 64 18 125q1 5 2 11q28 -24 28 -61q0 -24 -13 -44.5t-35 -30.5z" />
    <glyph glyph-name="uniE611" unicode="&#xe611;" 
d="M358 176q0 -13 9 -22.5t22.5 -9.5t22.5 9.5t9 22.5v0q0 13 -9 22t-22.5 9t-22.5 -9t-9 -22zM621 176q0 -13 9 -22.5t22.5 -9.5t22.5 9.5t9 22.5v0q0 13 -9 22t-22.5 9t-22.5 -9t-9 -22zM903 395q-1 9 -4 23.5t-16 48t-32 53.5q3 2 7 5.5t4.5 15t-13.5 23.5q-4 1 -9 2
t-14 2.5t-12 0.5q-2 6 -5 14.5t-15 26t-25 22.5q-1 1 -3 1h-6q-5 0 -9 -1.5t-8 -6t-5 -11.5q-68 34 -116 43q-6 1 -14.5 3t-31.5 9t-42.5 15.5t-40 23.5t-29.5 31l-3 3q-2 2 -10 5t-18 -2q-3 -2 -6.5 -7t-8 -28t-1.5 -55l-5 -1q-19 3 -89 48q-24 6 -31 -12q-12 -44 3 -76
q-55 -10 -79 -34q-1 -1 -2.5 -3.5t-4 -9t-1.5 -11.5t7.5 -10t18.5 -6q-2 -2 -7 -5t-17 -15.5t-22 -28t-20 -42t-13 -56.5q-1 -76 23 -160q-8 -22 -5 -45q3 -33 26 -56.5t56 -28.5q22 -65 70 -113q85 -85 204.5 -85t203.5 85q50 49 71 116q32 4 55 26t28 54q5 31 -9 59
q30 86 25 150zM249 118q-25 6 -42.5 25.5t-20.5 46.5q-1 9 0 18q10 -28 22 -53q2 -2 5.5 -4.5t14 -7t17.5 0.5q1 -7 3 -14zM529 -82q-97 0 -172 61t-96 154l-2 21q3 4 6 9q0 10 2 25.5t15.5 52t35.5 58.5q5 -1 14 -2t35.5 3t52.5 18q-24 -29 -46 -44q0 -1 -0.5 -3t-1.5 -7.5
t0 -10t5.5 -8t12.5 -4.5q3 -1 9.5 -1.5t25.5 -0.5t38.5 3t46.5 13t51 26q-1 -1 -1 -3t1.5 -7t5 -7t10.5 -4.5t20 1.5q33 1 86 41q1 -2 4 -4.5t17 -2t34 11.5q-1 -38 33 -97q15 -25 15 -68q4 -3 10 -6l-3 -22q-26 -86 -99 -141t-165 -55zM874 188q-4 -26 -22 -44.5t-44 -23.5
q2 6 3 12q20 -1 30 24q15 28 31 70q5 -19 2 -38z" />
    <glyph glyph-name="uniE612" unicode="&#xe612;" 
d="M825 315l50 287l-291 3l91 -109l-83 -66q-73 58 -167 58q-111 0 -189.5 -78.5t-78.5 -190.5q0 -111 78.5 -189t189.5 -78t189.5 78.5t78.5 188.5q0 80 -43 147l80 64zM425 38q-75 0 -128.5 53t-53.5 128q0 76 53.5 129.5t128.5 53.5q76 0 129 -53.5t53 -129.5
q0 -75 -53 -128t-129 -53z" />
    <glyph glyph-name="uniE613" unicode="&#xe613;" 
d="M752 414q0 100 -71.5 171t-171.5 71t-170 -71t-70 -171q0 -93 58.5 -160t152.5 -79v-58h-142v-63h142v-95h64v95h127v63h-127v58q85 12 146.5 80.5t61.5 158.5zM330 414q0 74 52 126t126 52t126 -52t52 -126t-52 -126t-126 -52t-126 52t-52 126z" />
    <glyph glyph-name="uniE614" unicode="&#xe614;" 
d="M768 736q-90 0 -155 -38.5t-101 -105.5q-77 144 -256 144q-22 0 -51 -8.5t-65.5 -31.5t-66.5 -57t-51 -92.5t-22 -130.5q0 -76 36 -153.5t91 -138.5t118.5 -115.5t121.5 -90.5t97.5 -57t47.5 -21q7 0 37 15t76.5 43.5t99 67t105.5 89.5t96 106t70 122t28 133
q0 73 -21 131.5t-51 92.5t-67 57t-66 31t-51 8zM280 529q-19 -3 -41 -22q-11 -9 -19 -22q-5 -7 -9 -15q-17 -34 -16 -71q0 -13 -9 -22.5t-22 -10t-23 8.5t-10 22v1q-2 52 23 101q6 11 13 22q13 20 30 34q35 30 71 37q13 3 24 -4.5t13.5 -20.5t-5 -24t-20.5 -14z" />
    <glyph glyph-name="uniE615" unicode="&#xe615;" 
d="M510 -23q-82 0 -156 31t-132 89t-88.5 132t-30.5 156t30.5 156t88.5 132t132.5 89t156 31t156 -31t131.5 -89q79 -78 106.5 -183t0 -210t-106.5 -183q-57 -58 -131.5 -89t-156.5 -31zM510 745q-72 0 -137.5 -27.5t-116.5 -78t-78.5 -116.5t-27.5 -138t27.5 -138
t78.5 -116.5t116.5 -78t137.5 -27.5t138 27.5t117 78.5q69 69 93.5 161.5t0 185t-93.5 162.5q-51 50 -117 77.5t-138 27.5zM676 224q-7 0 -15 4l-141 85l-2 2q-10 5 -12 8l-1 1q-25 14 -25 27v239q0 13 9.5 22.5t22 9.5t22 -9.5t9.5 -22.5v-225l142 -82l1 -1q12 -7 16 -19
q5 -13 -1 -24q-9 -15 -25 -15z" />
    <glyph glyph-name="uniE616" unicode="&#xe616;" 
d="M900 727q-81 84 -195 84q-107 0 -187 -75l-6 -6l-6 6q-80 75 -187 75q-114 0 -195 -84q-81 -83 -81 -201.5t81 -202.5l331 -341q23 -25 57 -25t57 25q328 337 331 341q81 84 81 202.5t-81 201.5zM871 353l-331 -341q-12 -12 -28.5 -12t-27.5 12l-331 341q-69 71 -69 172
t69 173q69 70 166 70q91 0 159 -63l34 -32l34 32q68 63 159 63q97 0 166 -70q69 -72 69 -173t-69 -172zM290 683h-2q-49 -1 -83 -36t-34 -84q0 -8 5.5 -14t14 -6t14 6t5.5 14q0 33 23.5 56.5t56.5 23.5q9 0 14.5 6t5.5 14t-5.5 14t-14.5 6z" />
    <glyph glyph-name="uniE617" unicode="&#xe617;" horiz-adv-x="1025" 
d="M512 385q56 0 95.5 40t39.5 95.5t-39.5 95t-95.5 39.5t-95.5 -39.5t-39.5 -95t39.5 -95.5t95.5 -40zM512 603q34 0 58.5 -24.5t24.5 -58.5t-24.5 -58t-58.5 -24t-58.5 24t-24.5 58t24.5 58.5t58.5 24.5zM928 154q-24 22 -68 41q-67 28 -167 43q52 62 83 119q48 89 48 163
q0 69 -25 127q-23 57 -67 99q-89 86 -220 86q-132 0 -220 -83q-44 -42 -67 -99q-25 -59 -25 -130q0 -28 7 -58v-1q3 -10 6 -21l6 -18v-1l10 -26q5 -10 15 -14t19.5 0.5t14 14t0.5 19.5q0 1 -1 1q0 1 -1 3q-1 4 -3 9t-5 12q-3 8 -5 15q-10 35 -10 65q0 115 72 187.5t187 72.5
q113 0 186 -73.5t73 -186.5q0 -44 -21.5 -96t-51.5 -94.5t-70 -87t-65.5 -69.5t-50.5 -46q-59 51 -110 107v1q-9 10 -22 9q-132 -14 -216 -49q-44 -19 -68 -41q-30 -28 -30 -61q0 -73 141 -117q127 -40 305 -40t305 40q141 44 141 117q0 33 -30 61zM801 25
q-119 -37 -289 -37t-289 37q-51 16 -78 35t-27 33q0 11 16 24.5t45.5 27.5t80 26t112.5 19q64 -70 124 -117q7 -6 16 -6t16 6q60 47 124 117q62 -7 112.5 -19t80 -26t45.5 -27.5t16 -24.5q0 -14 -27 -33t-78 -35zM345 312.5q0 16.5 -11.5 28t-27.5 11.5t-27.5 -11.5
t-11.5 -28t11.5 -28t27.5 -11.5t27.5 11.5t11.5 28z" />
    <glyph glyph-name="uniE618" unicode="&#xe618;" 
d="M858 601h-137q28 36 28 81q0 55 -38.5 93.5t-92.5 38.5q-67 0 -106 -54q-39 54 -106 54q-54 0 -92.5 -38.5t-38.5 -93.5q0 -45 28 -81h-137q-35 0 -60 -25t-25 -60v-105q0 -29 17 -51.5t44 -30.5v-290q0 -34 24 -58.5t59 -24.5h277q5 -2 10 -2t10 2h277q35 0 59 24.5
t24 58.5v290q27 8 44 30.5t17 51.5v105q0 35 -25 60t-60 25zM618 763q33 0 56.5 -23.5t23.5 -57t-23.5 -57t-56.5 -23.5h-81v80q0 34 24 57.5t57 23.5zM406 763q33 0 57 -23.5t24 -57.5v-80h-81q-33 0 -56.5 23.5t-23.5 57t23.5 57t56.5 23.5zM132 411v105q0 14 10 24.5
t24 10.5h321v-174h-321q-14 0 -24 10t-10 24zM193 39v287h294v-319h-262q-14 0 -23 9.5t-9 22.5zM799 7h-262v319h295v-287q0 -13 -9.5 -22.5t-23.5 -9.5zM892 411q0 -14 -10 -24t-24 -10h-321v174h321q14 0 24 -10.5t10 -24.5v-105z" />
    <glyph glyph-name="uniE619" unicode="&#xe619;" 
d="M897 242q-44 50 -95.5 68.5t-96 8t-81.5 -40t-57 -72.5q-38 9 -88 45t-84.5 76.5t-35.5 61.5q12 4 25.5 9t36 17t40.5 27.5t35 40.5t24.5 54.5t4 71t-21.5 88.5q-25 56 -64 88t-77 39t-77 1t-66 -18.5t-42 -25.5q-31 -25 -51 -60t-26.5 -75.5t-8.5 -68.5t0.5 -64.5
t2.5 -37.5q10 -85 54.5 -170.5t113 -154.5t151 -120.5t175.5 -74.5t179 -11q59 15 97.5 46t53 66t15.5 72t-9.5 66.5t-26.5 47.5zM640 -9q-151 33 -262 112.5t-192 218.5q-20 28 -41 124t-5 168q6 21 11.5 37t22 43t36.5 43.5t54.5 27t77.5 6.5q11 -2 22.5 -6t31 -16.5
t34.5 -29.5t28.5 -48.5t18.5 -71.5q1 -12 -0.5 -27t-10 -37.5t-25 -43t-48.5 -41.5t-76 -34q-1 -49 27.5 -96t71.5 -79.5t89 -54t83 -26.5q20 42 49.5 67.5t79.5 36.5q27 4 55.5 -3.5t53.5 -24.5t40.5 -49t13.5 -72q0 -16 -7.5 -34t-25 -38t-45.5 -33.5t-68 -20t-94 1.5z
" />
    <glyph glyph-name="uniE61A" unicode="&#xe61a;" 
d="M337 376q0 -48 -34 -81.5t-81.5 -33.5t-81 33.5t-33.5 81t33.5 81.5t81 34t81.5 -34t34 -81zM379 376q0 65 -46 111t-111.5 46t-111.5 -46t-46 -111.5t46 -111.5t111.5 -46t111.5 46t46 112zM859 648q0 -41 -29 -70t-70 -29t-70 29t-29 70t29 70t70 29t70 -29t29 -70z
M901 648q0 59 -41 100t-100 41t-100 -41t-41 -100t41 -100t100 -41t100 41t41 100zM859 93q0 -41 -29 -69.5t-70 -28.5t-70 28.5t-29 69.5t29 70t70 29t70 -29t29 -70zM901 93q0 59 -41 100.5t-100 41.5t-100 -41.5t-41 -100t41 -100t100 -41.5t100 41.5t41 99.5zM352 415
l320 185l-21 37l-320 -185zM332 279l320 -149l18 39l-320 149z" />
  </font>
</defs>
</svg>
